<svg xmlns="http://www.w3.org/2000/svg" width="63" height="60" viewBox="0 0 63 60" fill="none">
  <rect x="0.5" y="0.5" width="62" height="59" fill="#F0F0F0"/>
  <rect x="0.5" y="0.5" width="62" height="59"/>
  <path d="M15.843 18.8333V18C15.6194 18 15.405 18.0878 15.2469 18.2441C15.0888 18.4004 15 18.6123 15 18.8333H15.843ZM46.1909 18.8333H47.0339C47.0339 18.6123 46.9451 18.4004 46.787 18.2441C46.6289 18.0878 46.4145 18 46.1909 18V18.8333ZM15.8008 19.25H46.2331L46.1909 18H15.843L15.8008 19.25ZM45.6992 18.8333L45.6992 38.75L47.0339 38.8333V18.8333H45.6992ZM42.8189 41.7796H30.75H19.215L19.215 43H42.8189L42.8189 41.7796ZM16.3347 38.8333V18.75L15 18.8333V38.8333H16.3347ZM19.215 41.7796C18.5443 41.7796 17.8768 41.2188 17.4025 40.75C16.9283 40.2812 16.3347 39.4964 16.3347 38.8333H15C15 39.9384 15.4441 40.9982 16.2345 41.7796C17.025 42.561 18.0971 43 19.215 43L19.215 41.7796ZM45.6992 38.75C45.6992 39.75 45.1056 40.2812 44.6314 40.75C43.5898 41.7796 43.4896 41.7796 42.8189 41.7796L42.8189 43C43.9368 43 45.0089 42.561 45.7994 41.7796C46.5898 40.9982 47.0339 39.9384 47.0339 38.8333L45.6992 38.75Z" fill="black"/>
  <path d="M15.843 18.8333L31.017 33.8333L46.1909 18.8333" stroke="black" stroke-linecap="round" stroke-linejoin="round"/>
</svg>